# xmcd
#
# Track frame offsets:
#	150
#	16760
#	31737
#	45444
#	58093
#	71649
#	93303
#	113026
#	134805
#	149243
#	174766
#	188961
#	216810
#	234860
#	260575
#
# Disc length: 3691
#
# Revision: 1
# Processed by: cddbd v1.5.1PL0 Copyright (c) Steve Scherf et al.
# Submitted via: CDex 1.50beta10
# Normalized: r0:DSETVAR1,TDELIM( - )
#
DISCID=d30e690f
DTITLE=Various Artist - Mellow Jazz
DYEAR=1999
DGENRE=Jazz
TTITLE0=Billy Taylor - I wish I knew (how it would feel to be free)
TTITLE1=Quincy Jones - lullaby of birdland
TTITLE2=Duke Ellington and His Orchestra - sophisticated lady
TTITLE3=Dinah Washington - mad about the boy
TTITLE4=Miles Davis - boplicity
TTITLE5=Chamber Jazz Sextet - bewitched
TTITLE6=Dizzy Gillespie - they can't take that away from me
TTITLE7=Shorty Rodgers - casa de luz
TTITLE8=Gerry Mulligan with Chet Baker - my old flame
TTITLE9=Dexter Gordon - our love is here to stay
TTITLE10=Charlie Parker - cool blues
TTITLE11=Shirley Scott - autumn leaves
TTITLE12=Kenny Burrell - midnight blue
TTITLE13=Rob James - angela
TTITLE14=Nina Simone - my baby just cares for me
EXTD=YEAR: 1999
EXTT0=
EXTT1=
EXTT2=
EXTT3=
EXTT4=
EXTT5=
EXTT6=
EXTT7=
EXTT8=
EXTT9=
EXTT10=
EXTT11=
EXTT12=
EXTT13=
EXTT14=
PLAYORDER=
